<?xml version="1.0" encoding="utf-8"?><!--Generator: Adobe Illustrator 18.1.1, SVG Export Plug-In . SVG Version: 6.00 Build 0)--><svg xmlns="http://www.w3.org/2000/svg" xmlns:xlink="http://www.w3.org/1999/xlink" id="Layer_1" width="512px" height="512px" x="0px" y="0px" enable-background="new 0 0 512 512" version="1.1" viewBox="0 0 512 512" xml:space="preserve"><path fill="#361100" d="M40,512c-22.1,0-40-17.9-40-40V40C0,17.9,17.9,0,40,0h432c22.1,0,40,17.9,40,40v432c0,22.1-17.9,40-40,40H40
	z"/><path fill="#FFFFFF" fill-rule="evenodd" d="M426.5,194.6c3.9,0,7.8,0,11.7,0c0,31.3,0,62.5,0,93.8
	c-3.1,1.1-8.2,0.2-12.1,0.5c0-30.9,0-61.9,0-92.8C425.9,195.4,425.9,194.7,426.5,194.6z" clip-rule="evenodd"/><path fill="#FFFFFF" fill-rule="evenodd" d="M448.8,195.1c0.5,1.8-1.9,0.7-2.9,1c-0.6,2.8,1.5,8.3-1.5,8.7
	c0-2.8,0-5.5,0-8.3c-0.1-1.4-3.3,0.4-3.4-1C441.7,193.7,447.4,194.5,448.8,195.1z" clip-rule="evenodd"/><path fill="#FFFFFF" fill-rule="evenodd" d="M450.3,194.6c0.3,0,0.6,0,1,0c2.6,1.1,2.7,4.7,3.9,7.3
	c2.9-1.5,1-7.8,5.8-7.3c-0.7,3.2,1.6,9.3-1.5,10.2c0-2.6,0-5.2,0-7.8c-1.5,2.2-2.5,4.9-3.4,7.8c-2.7-1.2-2.8-4.9-3.9-7.8
	c-1.4,1.5,0.5,6.3-1,7.8C449.1,203.3,450.9,197.8,450.3,194.6z" clip-rule="evenodd"/><path fill="#FFFFFF" fill-rule="evenodd" d="M50.9,211.6c0-1.1,0-2.3,0-3.4c1.6-3.7,3.9-6.4,9.2-5.3
	c7,1.4,6.5,13.2-1,14.1C55.5,217.4,52.6,215.9,50.9,211.6z" clip-rule="evenodd"/><path fill="#FFFFFF" fill-rule="evenodd" d="M123.3,317.6c-4,0-8.1,0-12.1,0c1.6-42.6-9.9-90.8,28.7-94.8
	c30.9-3.2,45.9,30.6,32.6,52.5c-7.1,11.7-29.3,20.8-44.7,9.7c0-4,0-8.1,0-12.1c5.4,3,9.1,5.6,15.5,5.8c31.9,1.2,26.7-55.2-6.8-43.2
	C113.6,243.6,126.9,289.2,123.3,317.6z" clip-rule="evenodd"/><path fill="#FFFFFF" fill-rule="evenodd" d="M249.6,288.9c-3.9-0.3-9,0.6-12.1-0.5c-2.1-14.3,3-29.3-0.5-41.8
	c-3.7-13.1-24.6-16.5-34.5-7.3c-14.2,13.2-4.1,46.2,19.9,38.4c4.7-1.5,7-5,10.7-7.3c0,4.5,0,9.1,0,13.6c-5.1,2.9-8,5.2-13.1,5.8
	c-21.5,2.7-36.4-14.4-36.4-34c0-17.3,11.8-31.3,29.2-33c10.2-1.1,19.1,1.5,24.3,4.9C253,238.1,249.6,261.8,249.6,288.9z" clip-rule="evenodd"/><path fill="#FFFFFF" fill-rule="evenodd" d="M292.8,222.8c0,3.7,0,7.5,0,11.2c-26.4-1.6-18.8,30.7-19.9,54.4
	c-3.1,1.1-8.2,0.2-12.1,0.5c0-21.5,0-43.1,0-64.6c3.9,0,7.8,0,11.7,0c0,2.1,0,4.2,0,6.3C275.9,226.6,282.4,221.5,292.8,222.8z" clip-rule="evenodd"/><path fill="#FFFFFF" fill-rule="evenodd" d="M410.9,242.7c-13.8,9.1-29.1,16.6-43.7,24.8
	c-1.1-3.6-3.3-6.1-4.4-9.7c10.6-5.8,21-11.7,31.6-17.5c-3.2-2.6-4.5-4.4-7.8-5.3c-32.4-9.1-37.4,42.8-7.3,43.7
	c14.3,0.5,19.5-8.5,22.4-20.4c3.6,0.8,7.5,1.2,11.7,1.5c0.8,28.8-39.1,38.7-57.3,20.9c-17.7-17.2-9.5-54.8,19.9-57.8
	C392.5,221.1,404.4,229.4,410.9,242.7z" clip-rule="evenodd"/><path fill="#FFFFFF" fill-rule="evenodd" d="M64,224.3c0,21.5,0,43.1,0,64.6c-3.9-0.3-9,0.6-12.1-0.5
	c0.3-21.2-0.6-43.7,0.5-64.1C56.2,224.3,60.1,224.3,64,224.3z" clip-rule="evenodd"/><path fill="#FFFFFF" fill-rule="evenodd" d="M340,224.3c0,3.7,0,7.5,0,11.2c-19-1.6-31.6,5.3-31.6,20.9
	c0,15.5,12.5,22.6,31.6,20.9c-0.3,3.8,0.6,8.7-0.5,11.7c-26.1,2-43.8-10.6-43.7-32.6C295.9,235.8,312.9,220.9,340,224.3z" clip-rule="evenodd"/><path fill="#FFFFFF" fill-rule="evenodd" d="M76.1,246.6c7.6,0,15.2,0,22.8,0c1.1,3.1,0.2,8.2,0.5,12.1
	c-7.8,0-15.6,0-23.3,0C76.1,254.7,76.1,250.7,76.1,246.6z" clip-rule="evenodd"/></svg>