<svg width="339.5642587984988" height="88.80937143811865" viewBox="0 0 339.5642587984988 88.80937143811865"
     class="css-1j8o68f">
    <defs id="SvgjsDefs14217">
        <linearGradient id="SvgjsLinearGradient14224">
            <stop id="SvgjsStop14225" stop-color="#ef4136" offset="0"></stop>
            <stop id="SvgjsStop14226" stop-color="#fbb040" offset="1"></stop>
        </linearGradient>
    </defs>
    <g id="SvgjsG14218" featurekey="symbolFeature-0"
       transform="matrix(1.0263261573755118,0,0,1.0263261573755118,-14.324817633524296,-6.91127761884068)"
       fill="url(#SvgjsLinearGradient14224)">
        <path xmlns="http://www.w3.org/2000/svg"
              d="M21.42,69.337c2.969,1.037,6.297,1.11,9.357,0.481c6.211-1.278,11.106-3.323,15.11-5.716  c1.058-0.633,1.768-1.707,1.938-2.928c0.611-4.398,1.71-15.272-1.543-19.773c-2.166-2.998-5.226-4.682-8.814-5.394  c-2.928-0.58-5.61-1.144-8.14-2.546c-0.529-0.293-0.341-1.096,0.263-1.109c3.124-0.068,6.254-0.113,9.337,0.359  c3.719,0.57,7.427,1.964,10.086,4.625c0.323-1.098,0.384-2.272,0.185-3.399c-0.064-0.361,0.35-0.611,0.642-0.389  c1.703,1.296,2.931,3.19,3.671,5.212c0.862,2.357,1.114,4.893,1.192,7.401c0.636-0.533,1.181-1.175,1.608-1.887  c0.22-0.368,0.771-0.296,0.861,0.123c0.146,0.681,0.332,1.372,0.367,1.817c0.103,1.334,0.117,2.675,0.041,4.011  c-0.138,2.421-0.566,4.84-1.216,7.175c0,0,9.875-12.5,4.917-25.583c-4.958-13.083-16.5-20.083-16.5-20.083s-3.875-5-5.583-5  c-1.708,0-0.917,9.832-0.917,9.834c0.062,0.776-1.752,2.349-2.228,2.933c-1.072,1.316-2.253,2.544-3.524,3.669  c-2.957,2.616-6.304,4.253-9.778,6.037c-0.378,0.194-0.794,0.434-0.898,0.845c-0.083,0.326,0.059,0.665,0.217,0.962  c2.696,5.053,10.406,6.622,15.545,6.804c0.337,0.012-0.099,1.922-0.135,2.03c-0.769,2.349-2.723,4.017-4.523,5.563  c-4.335,3.724-9.457,6.569-13.178,10.98c-1.214,1.439-2.27,3.059-2.75,4.879c-0.48,1.82-0.327,3.867,0.72,5.431  C18.602,67.975,19.972,68.832,21.42,69.337z M36.615,25.652c1.105,0,2,0.485,2,1.083s-0.895,1.083-2,1.083c-1.105,0-2-0.485-2-1.083  S35.511,25.652,36.615,25.652z"></path>
        <path xmlns="http://www.w3.org/2000/svg"
              d="M86.033,76.402c0-9.087-6.891-15.884-15.864-16.244c-1.427-0.057-2.858,0.03-4.27,0.246  c-5.878,0.899-11.133,3.928-16.231,6.814c-5.267,2.981-10.465,5.697-16.429,7.031c-5.418,1.212-11.328,1.61-15.788-2.275  c-0.674-0.587-1.288-1.243-1.828-1.956c-0.262-0.346-0.783-1.525-1.371-1.401c-0.406,0.088-0.286,1.232-0.25,1.767  c0.529,7.758,3.485,15.942,10.53,20.026c3.796,2.2,8.286,3.118,12.661,2.791c8.599-0.642,16.598-5.358,24.726-7.912  c4.361-1.371,8.898-2.574,13.446-1.304c4.692,1.311,4.866,4.864,4.349,7.319c-0.142,0.674,0.697,1.116,1.154,0.6  C86.509,85.534,86.033,76.402,86.033,76.402z M71.389,71.113c-2.479-0.116-4.969,0.168-7.385,0.764  c-2.429,0.573-4.795,1.469-7.162,2.433c-2.362,0.982-4.716,2.07-7.174,2.986c2.047-1.634,4.198-3.107,6.497-4.386  c2.294-1.283,4.763-2.319,7.369-2.977c2.614-0.609,5.354-0.83,8.029-0.372c2.665,0.438,5.222,1.563,7.18,3.319  C76.339,71.837,73.869,71.244,71.389,71.113z"></path>
    </g>
    <g id="SvgjsG14219" featurekey="nameLeftFeature-0"
       transform="matrix(2.8709073565534897,0,0,2.8709073565534897,91.1290912744912,11.329859153489021)" fill="#7366ff">
        <path d="M7.3 9.9 l0 2.26 l-3.24 0 l0 7.84 l-3.06 0 l0 -16.78 l7.92 0 l0 2.28 l-4.86 0 l0 4.4 l3.24 0 z M19.1 6.720000000000001 l0 9.78 c0 2.2 -1.64 3.7 -3.38 3.7 l-2.14 0 c-1.74 0 -3.38 -1.48 -3.38 -3.7 l0 -9.78 c0 -2.2 1.66 -3.7 3.4 -3.7 l2.12 0 c1.72 0.02 3.38 1.52 3.38 3.7 z M13.200000000000001 8.06 l0 7.5 c0 0.38 0.02 0.66 0.06 1.14 c0.02 0.82 0.56 1.02 1.26 1.02 c0.78 0 1.42 -0.02 1.54 -1.02 c0.02 -0.5 0.04 -1 0.04 -1.5 l0 -7.9 c0 -0.24 -0.02 -0.5 -0.02 -0.74 c-0.02 -0.62 -0.46 -1 -0.96 -1.06 c0 -0.02 -0.4 -0.02 -0.42 -0.02 c-1.46 0 -1.48 0.66 -1.48 1.82 c-0.02 0.24 -0.02 0.5 -0.02 0.76 z M29.72 3.219999999999999 l-3.4 8.38 l3.4 8.4 l-3.1 0 l-1.84 -5.2 l-1.84 5.2 l-3.08 0 l3.38 -8.4 l-3.38 -8.38 l3.1 0 l1.82 5.2 l1.84 -5.2 l3.1 0 z"></path>
    </g>
    <g id="SvgjsG14220" featurekey="nameRightFeature-0"
       transform="matrix(2.8642387472959943,0,0,2.8642387472959943,179.79702019049932,11.407285806775214)"
       fill="#7366ff">
        <path d="M10.58 5.880000000000001 l-3.3 0 l0 14.12 l-3.56 0 l0 -14.12 l-3.3 0 l0 -2.64 l10.16 0 l0 2.64 z M6.88 19.6 l0 -14.12 l3.3 0 l0 -1.84 l-9.36 0 l0 1.84 l3.3 0 l0 14.12 l2.76 0 z M15.3 13.719999999999999 l0 6.28 l-3.56 0 l0 -16.76 l4.8 0 c0.28 0 0.56 -0.02 0.82 -0.02 c0.3 0 0.6 0.04 0.88 0.12 c1.4 0.4 2.68 1.78 2.64 3.52 l0 0.74 c0 0.86 -0.02 1.72 0 2.58 c0.04 1.32 -0.68 2.5 -1.56 3.14 l2.16 6.68 l-3.64 0 l-1.92 -6.26 c-0.22 -0.02 -0.42 -0.02 -0.62 -0.02 z M14.899999999999999 13.32 l1.3 0.02 l1.94 6.26 l2.78 0 l-2.06 -6.42 l0.22 -0.18 c0.86 -0.62 1.4 -1.68 1.4 -2.74 l0 -3.4 c0 -1.72 -1.38 -3.24 -3.12 -3.24 l-5.22 0.02 l0 15.96 l2.76 0 l0 -6.28 z M14.899999999999999 5.66 l1.68 0 c0.84 0 1.06 0.86 1.06 1.3 l0 3.3 c0 0.6 -0.26 1.28 -0.96 1.28 l-1.78 -0.02 l0 -5.86 z M15.3 6.0600000000000005 l0 5.06 c0.48 0 0.92 0.02 1.38 0.02 c0.44 0 0.56 -0.52 0.56 -0.88 l0 -3.3 c0.02 -0.48 -0.28 -0.92 -0.66 -0.9 l-1.28 0 z M26.080000000000002 3.2399999999999984 l3.44 0 l4 16.76 l-3.58 0 l-0.72 -3.36 l-2.82 0 l-0.72 3.36 l-3.58 0 z M26.060000000000002 16.240000000000002 l3.5 0 l0.7 3.36 l2.76 0 l-3.82 -15.96 l-2.8 0 l-3.8 15.96 l2.76 0 z M27.8 7.92 l1.34 6.5 l-2.66 0 z M28.66 14.02 l-0.86 -4.1 l-0.84 4.1 l1.7 0 z M43.800000000000004 14.219999999999999 l0 2.18 c0.02 1.96 -1.54 3.82 -3.56 3.82 c-0.1 -0.02 -0.16 -0.02 -0.24 -0.02 l-0.84 0 c-0.24 0 -0.48 0 -0.72 0.02 l-0.3 0 c-2.02 0 -3.58 -1.78 -3.58 -3.76 l0 -9.7 c0 -1.96 1.58 -3.76 3.58 -3.76 c0.4 0.02 0.8 0.02 1.18 0.02 l0.9 0 c2.02 0 3.6 1.78 3.58 3.76 l0 2.62 l-3.6 0 l0 -1.48 c0.04 -1.94 -0.08 -2.02 -1.32 -2.02 c-0.48 0 -0.78 0.08 -0.78 0.7 l0 10.02 c0 0.68 0.56 0.7 1.06 0.7 c0.92 -0.04 1.04 -1.16 1.04 -2.48 l0 -0.62 l3.6 0 z M40.6 7.42 l0 1.58 l2.8 0 l0 -2.22 c0 -1.74 -1.36 -3.36 -3.16 -3.36 l-0.5 0 c-0.54 0 -1.06 -0.02 -1.6 -0.02 c-1.74 0 -3.18 1.6 -3.18 3.36 l0 9.7 c0 1.78 1.42 3.36 3.18 3.36 c0.42 0 0.88 0.02 1.32 0.02 l0.1 0 c0.38 0 0.78 0 1.14 -0.06 c1.56 -0.24 2.7 -1.78 2.7 -3.38 l0 -1.78 l-2.8 0 l0 0.48 c0 1.1 -0.12 2.64 -1.6 2.64 c-0.5 0 -1.3 -0.2 -1.3 -1.12 l0 -10.02 c0 -0.94 0.6 -1.1 1.18 -1.1 c1.6 0 1.72 0.54 1.72 1.92 z M55.64 20 l-3.62 0 l-2.36 -7.58 l-0.74 0.9 l0 6.68 l-3.58 0 l0 -16.76 l3.58 0 l0.02 5.32 c1.26 -1.96 1.96 -3.24 3.12 -5.32 l3.72 0 l-3.56 6 z M48.52 13.16 l1.32 -1.56 l2.48 8 l2.76 0 l-3.3 -10.4 l3.3 -5.56 l-2.78 0 c-0.98 1.74 -1.94 3.46 -3.04 5.14 l-0.72 1.14 l-0.02 -6.28 l-2.78 0 l0 15.96 l2.78 0 l0 -6.44 z"></path>
    </g>
</svg>